<mxfile host="app.diagrams.net" modified="2022-06-28T19:50:19.571Z" agent="5.0 (Windows NT 10.0; Win64; x64) AppleWebKit/537.36 (KHTML, like Gecko) Chrome/102.0.5005.124 Safari/537.36 Edg/102.0.1245.44" etag="l9XMsF9BZ3iqTXkRKsE3" version="20.0.3" type="github">
  <diagram id="C5RBs43oDa-KdzZeNtuy" name="Page-1">
    <mxGraphModel dx="1422" dy="804" grid="1" gridSize="10" guides="1" tooltips="1" connect="1" arrows="1" fold="1" page="1" pageScale="1" pageWidth="827" pageHeight="1169" math="0" shadow="0">
      <root>
        <mxCell id="WIyWlLk6GJQsqaUBKTNV-0" />
        <mxCell id="WIyWlLk6GJQsqaUBKTNV-1" parent="WIyWlLk6GJQsqaUBKTNV-0" />
        <mxCell id="drCkNsFTABV8Y_QIdW5n-4" value="listar_movimientos_cuenta" style="shape=umlFrame;whiteSpace=wrap;html=1;width=170;height=30;" vertex="1" parent="WIyWlLk6GJQsqaUBKTNV-1">
          <mxGeometry x="70" y="240" width="730" height="420" as="geometry" />
        </mxCell>
        <mxCell id="drCkNsFTABV8Y_QIdW5n-5" value="Movimiento" style="swimlane;fontStyle=0;childLayout=stackLayout;horizontal=1;startSize=26;fillColor=none;horizontalStack=0;resizeParent=1;resizeParentMax=0;resizeLast=0;collapsible=1;marginBottom=0;" vertex="1" parent="WIyWlLk6GJQsqaUBKTNV-1">
          <mxGeometry x="620" y="370" width="140" height="160" as="geometry" />
        </mxCell>
        <mxCell id="drCkNsFTABV8Y_QIdW5n-6" value="- movimientoId: int&lt;br&gt;- fecha: date&lt;br&gt;- oficinaId: int&lt;br&gt;- descripcion: string&lt;br&gt;- referencia: string&lt;br&gt;- monto: bigInt" style="text;strokeColor=none;fillColor=none;align=left;verticalAlign=top;spacingLeft=4;spacingRight=4;overflow=hidden;rotatable=0;points=[[0,0.5],[1,0.5]];portConstraint=eastwest;spacing=1;spacingBottom=10;html=1;" vertex="1" parent="drCkNsFTABV8Y_QIdW5n-5">
          <mxGeometry y="26" width="140" height="134" as="geometry" />
        </mxCell>
        <mxCell id="drCkNsFTABV8Y_QIdW5n-9" value="Cuenta" style="swimlane;fontStyle=0;childLayout=stackLayout;horizontal=1;startSize=26;fillColor=none;horizontalStack=0;resizeParent=1;resizeParentMax=0;resizeLast=0;collapsible=1;marginBottom=0;" vertex="1" parent="WIyWlLk6GJQsqaUBKTNV-1">
          <mxGeometry x="365" y="370" width="140" height="160" as="geometry" />
        </mxCell>
        <mxCell id="drCkNsFTABV8Y_QIdW5n-10" value="- cuentaId: int&lt;br&gt;- tipo: string&lt;br&gt;- saldo: bigInt&lt;br&gt;" style="text;strokeColor=none;fillColor=none;align=left;verticalAlign=top;spacingLeft=4;spacingRight=4;overflow=hidden;rotatable=0;points=[[0,0.5],[1,0.5]];portConstraint=eastwest;spacing=1;spacingBottom=10;html=1;" vertex="1" parent="drCkNsFTABV8Y_QIdW5n-9">
          <mxGeometry y="26" width="140" height="134" as="geometry" />
        </mxCell>
        <mxCell id="drCkNsFTABV8Y_QIdW5n-12" value="Cliente" style="swimlane;fontStyle=0;childLayout=stackLayout;horizontal=1;startSize=26;fillColor=none;horizontalStack=0;resizeParent=1;resizeParentMax=0;resizeLast=0;collapsible=1;marginBottom=0;" vertex="1" parent="WIyWlLk6GJQsqaUBKTNV-1">
          <mxGeometry x="110" y="370" width="140" height="160" as="geometry" />
        </mxCell>
        <mxCell id="drCkNsFTABV8Y_QIdW5n-13" value="- identificacion: int&lt;br&gt;- nombres: string&lt;br&gt;- apellidos: string&lt;br&gt;- direcciÃ³n: string&lt;br&gt;- telefono: string" style="text;strokeColor=none;fillColor=none;align=left;verticalAlign=top;spacingLeft=4;spacingRight=4;overflow=hidden;rotatable=0;points=[[0,0.5],[1,0.5]];portConstraint=eastwest;spacing=1;spacingBottom=10;html=1;" vertex="1" parent="drCkNsFTABV8Y_QIdW5n-12">
          <mxGeometry y="26" width="140" height="134" as="geometry" />
        </mxCell>
      </root>
    </mxGraphModel>
  </diagram>
</mxfile>
